<svg xmlns="http://www.w3.org/2000/svg" width="34.56" height="34.56" viewBox="0 0 34.56 34.56"><path d="M22.32,18a4.319,4.319,0,1,0,4.32,4.319A4.319,4.319,0,0,0,22.32,18Zm8.641-8.644L27.4,2.182A2.154,2.154,0,0,0,25.359.72H19.426a2.154,2.154,0,0,0-2.055,1.494L13.685,9.36H5.039A4.323,4.323,0,0,0,.72,13.681v21.6H35.28v-21.6a4.323,4.323,0,0,0-4.319-4.323ZM7.2,18a2.157,2.157,0,1,1,1.527-.632A2.159,2.159,0,0,1,7.2,18ZM22.32,30.964a8.642,8.642,0,1,1,8.641-8.644A8.645,8.645,0,0,1,22.32,30.964Z" transform="translate(-0.72 -0.72)"/></svg>